<mxfile host="app.diagrams.net" agent="Mozilla/5.0 (X11; Linux x86_64; rv:131.0) Gecko/20100101 Firefox/131.0" version="24.8.3">
  <diagram name="Page-1" id="Z-cmog5nYV2hGg0GGa1Q">
    <mxGraphModel dx="922" dy="562" grid="1" gridSize="10" guides="1" tooltips="1" connect="1" arrows="1" fold="1" page="1" pageScale="1" pageWidth="850" pageHeight="1100" math="0" shadow="0">
      <root>
        <mxCell id="0" />
        <mxCell id="1" parent="0" />
        <mxCell id="HSRKT8yN0z6L669cGbnR-27" style="edgeStyle=orthogonalEdgeStyle;rounded=0;orthogonalLoop=1;jettySize=auto;html=1;fillColor=#f8cecc;strokeColor=#b85450;" edge="1" parent="1" source="HSRKT8yN0z6L669cGbnR-1" target="HSRKT8yN0z6L669cGbnR-3">
          <mxGeometry relative="1" as="geometry" />
        </mxCell>
        <mxCell id="HSRKT8yN0z6L669cGbnR-1" value="Power Input" style="rounded=0;whiteSpace=wrap;html=1;fillColor=#f8cecc;strokeColor=#b85450;" vertex="1" parent="1">
          <mxGeometry x="40" y="200" width="80" height="40" as="geometry" />
        </mxCell>
        <mxCell id="HSRKT8yN0z6L669cGbnR-11" value="" style="edgeStyle=orthogonalEdgeStyle;rounded=0;orthogonalLoop=1;jettySize=auto;html=1;fillColor=#f8cecc;strokeColor=#b85450;" edge="1" parent="1" source="HSRKT8yN0z6L669cGbnR-3" target="HSRKT8yN0z6L669cGbnR-4">
          <mxGeometry relative="1" as="geometry" />
        </mxCell>
        <mxCell id="HSRKT8yN0z6L669cGbnR-23" style="edgeStyle=orthogonalEdgeStyle;rounded=0;orthogonalLoop=1;jettySize=auto;html=1;startArrow=classic;startFill=1;fillColor=#d5e8d4;strokeColor=#82b366;" edge="1" parent="1" source="HSRKT8yN0z6L669cGbnR-3" target="HSRKT8yN0z6L669cGbnR-22">
          <mxGeometry relative="1" as="geometry" />
        </mxCell>
        <mxCell id="HSRKT8yN0z6L669cGbnR-3" value="Battery Charger" style="rounded=0;whiteSpace=wrap;html=1;fillColor=#f8cecc;strokeColor=#b85450;" vertex="1" parent="1">
          <mxGeometry x="160" y="200" width="120" height="40" as="geometry" />
        </mxCell>
        <mxCell id="HSRKT8yN0z6L669cGbnR-4" value="&lt;div&gt;Batteries&lt;/div&gt;" style="rounded=0;whiteSpace=wrap;html=1;fillColor=#f8cecc;strokeColor=#b85450;" vertex="1" parent="1">
          <mxGeometry x="160" y="120" width="400" height="40" as="geometry" />
        </mxCell>
        <mxCell id="HSRKT8yN0z6L669cGbnR-13" value="" style="edgeStyle=orthogonalEdgeStyle;rounded=0;orthogonalLoop=1;jettySize=auto;html=1;startArrow=classic;startFill=1;fillColor=#ffe6cc;strokeColor=#d79b00;" edge="1" parent="1" source="HSRKT8yN0z6L669cGbnR-7" target="HSRKT8yN0z6L669cGbnR-4">
          <mxGeometry relative="1" as="geometry" />
        </mxCell>
        <mxCell id="HSRKT8yN0z6L669cGbnR-24" style="edgeStyle=orthogonalEdgeStyle;rounded=0;orthogonalLoop=1;jettySize=auto;html=1;startArrow=classic;startFill=1;fillColor=#d5e8d4;strokeColor=#82b366;" edge="1" parent="1" source="HSRKT8yN0z6L669cGbnR-7">
          <mxGeometry relative="1" as="geometry">
            <mxPoint x="360" y="360" as="targetPoint" />
            <Array as="points">
              <mxPoint x="380" y="300" />
              <mxPoint x="361" y="300" />
            </Array>
          </mxGeometry>
        </mxCell>
        <mxCell id="HSRKT8yN0z6L669cGbnR-7" value="Battery Monitor" style="rounded=0;whiteSpace=wrap;html=1;fillColor=#ffe6cc;strokeColor=#d79b00;" vertex="1" parent="1">
          <mxGeometry x="320" y="200" width="120" height="40" as="geometry" />
        </mxCell>
        <mxCell id="HSRKT8yN0z6L669cGbnR-15" value="" style="edgeStyle=orthogonalEdgeStyle;rounded=0;orthogonalLoop=1;jettySize=auto;html=1;startArrow=classic;startFill=1;endArrow=none;endFill=0;fillColor=#ffe6cc;strokeColor=#d79b00;" edge="1" parent="1" source="HSRKT8yN0z6L669cGbnR-8" target="HSRKT8yN0z6L669cGbnR-4">
          <mxGeometry relative="1" as="geometry" />
        </mxCell>
        <mxCell id="HSRKT8yN0z6L669cGbnR-25" style="edgeStyle=orthogonalEdgeStyle;rounded=0;orthogonalLoop=1;jettySize=auto;html=1;startArrow=classic;startFill=1;fillColor=#d5e8d4;strokeColor=#82b366;" edge="1" parent="1" source="HSRKT8yN0z6L669cGbnR-8" target="HSRKT8yN0z6L669cGbnR-22">
          <mxGeometry relative="1" as="geometry" />
        </mxCell>
        <mxCell id="HSRKT8yN0z6L669cGbnR-8" value="Fuel Gauge" style="rounded=0;whiteSpace=wrap;html=1;fillColor=#dae8fc;strokeColor=#6c8ebf;" vertex="1" parent="1">
          <mxGeometry x="480" y="200" width="80" height="40" as="geometry" />
        </mxCell>
        <mxCell id="HSRKT8yN0z6L669cGbnR-20" style="edgeStyle=orthogonalEdgeStyle;rounded=0;orthogonalLoop=1;jettySize=auto;html=1;fillColor=#f8cecc;strokeColor=#b85450;" edge="1" parent="1" source="HSRKT8yN0z6L669cGbnR-16" target="HSRKT8yN0z6L669cGbnR-17">
          <mxGeometry relative="1" as="geometry" />
        </mxCell>
        <mxCell id="HSRKT8yN0z6L669cGbnR-16" value="Voltage Regulator" style="rounded=0;whiteSpace=wrap;html=1;fillColor=#f8cecc;strokeColor=#b85450;" vertex="1" parent="1">
          <mxGeometry x="680" y="120" width="120" height="120" as="geometry" />
        </mxCell>
        <mxCell id="HSRKT8yN0z6L669cGbnR-19" value="" style="edgeStyle=orthogonalEdgeStyle;rounded=0;orthogonalLoop=1;jettySize=auto;html=1;fillColor=#f8cecc;strokeColor=#b85450;" edge="1" parent="1" source="HSRKT8yN0z6L669cGbnR-17" target="HSRKT8yN0z6L669cGbnR-18">
          <mxGeometry relative="1" as="geometry" />
        </mxCell>
        <mxCell id="HSRKT8yN0z6L669cGbnR-17" value="Load Switch" style="rounded=0;whiteSpace=wrap;html=1;fillColor=#ffe6cc;strokeColor=#d79b00;" vertex="1" parent="1">
          <mxGeometry x="680" y="360" width="120" height="40" as="geometry" />
        </mxCell>
        <mxCell id="HSRKT8yN0z6L669cGbnR-30" style="edgeStyle=orthogonalEdgeStyle;rounded=0;orthogonalLoop=1;jettySize=auto;html=1;entryX=0.5;entryY=0;entryDx=0;entryDy=0;fillColor=#f8cecc;strokeColor=#b85450;" edge="1" parent="1" source="HSRKT8yN0z6L669cGbnR-18" target="HSRKT8yN0z6L669cGbnR-29">
          <mxGeometry relative="1" as="geometry" />
        </mxCell>
        <mxCell id="HSRKT8yN0z6L669cGbnR-18" value="Power Monitor" style="rounded=0;whiteSpace=wrap;html=1;fillColor=#dae8fc;strokeColor=#6c8ebf;" vertex="1" parent="1">
          <mxGeometry x="680" y="480" width="120" height="40" as="geometry" />
        </mxCell>
        <mxCell id="HSRKT8yN0z6L669cGbnR-26" style="edgeStyle=orthogonalEdgeStyle;rounded=0;orthogonalLoop=1;jettySize=auto;html=1;entryX=0;entryY=0.5;entryDx=0;entryDy=0;fillColor=#dae8fc;strokeColor=#6c8ebf;" edge="1" parent="1" source="HSRKT8yN0z6L669cGbnR-22" target="HSRKT8yN0z6L669cGbnR-17">
          <mxGeometry relative="1" as="geometry" />
        </mxCell>
        <mxCell id="HSRKT8yN0z6L669cGbnR-31" style="edgeStyle=orthogonalEdgeStyle;rounded=0;orthogonalLoop=1;jettySize=auto;html=1;entryX=0;entryY=0.5;entryDx=0;entryDy=0;fillColor=#d5e8d4;strokeColor=#82b366;startArrow=classic;startFill=1;" edge="1" parent="1" source="HSRKT8yN0z6L669cGbnR-22" target="HSRKT8yN0z6L669cGbnR-18">
          <mxGeometry relative="1" as="geometry">
            <Array as="points">
              <mxPoint x="360" y="500" />
            </Array>
          </mxGeometry>
        </mxCell>
        <mxCell id="HSRKT8yN0z6L669cGbnR-33" style="edgeStyle=orthogonalEdgeStyle;rounded=0;orthogonalLoop=1;jettySize=auto;html=1;entryX=0;entryY=0.5;entryDx=0;entryDy=0;fillColor=#d5e8d4;strokeColor=#82b366;startArrow=classic;startFill=1;" edge="1" parent="1" source="HSRKT8yN0z6L669cGbnR-22" target="HSRKT8yN0z6L669cGbnR-16">
          <mxGeometry relative="1" as="geometry" />
        </mxCell>
        <mxCell id="HSRKT8yN0z6L669cGbnR-22" value="Electrical Power System Controller" style="rounded=0;whiteSpace=wrap;html=1;fillColor=#d5e8d4;strokeColor=#82b366;" vertex="1" parent="1">
          <mxGeometry x="240" y="360" width="240" height="40" as="geometry" />
        </mxCell>
        <mxCell id="HSRKT8yN0z6L669cGbnR-29" value="System Power" style="rounded=0;whiteSpace=wrap;html=1;fillColor=#f8cecc;strokeColor=#b85450;" vertex="1" parent="1">
          <mxGeometry x="680" y="600" width="120" height="40" as="geometry" />
        </mxCell>
        <mxCell id="HSRKT8yN0z6L669cGbnR-34" style="edgeStyle=orthogonalEdgeStyle;rounded=0;orthogonalLoop=1;jettySize=auto;html=1;entryX=-0.008;entryY=0.167;entryDx=0;entryDy=0;entryPerimeter=0;fillColor=#f8cecc;strokeColor=#b85450;" edge="1" parent="1" source="HSRKT8yN0z6L669cGbnR-4" target="HSRKT8yN0z6L669cGbnR-16">
          <mxGeometry relative="1" as="geometry" />
        </mxCell>
      </root>
    </mxGraphModel>
  </diagram>
</mxfile>
